# xmcd
#
# Track frame offsets:
#	150
#	17269
#	37710
#	58259
#	77838
#	100316
#	120671
#	137909
#
# Disc length: 2077 seconds
#
# Revision: 16
# Processed by: cddbd v1.5.2PL0 Copyright (c) Steve Scherf et al.
# Submitted via: Jack! The Knife 20 Magnifico
#
DISCID=5e081b08
DTITLE=Coroner - No More Color
DYEAR=1989
DGENRE=Metal
TTITLE0=Die By My Hand
TTITLE1=No Need To Be Human
TTITLE2=Read My Scars
TTITLE3=D.O.A.
TTITLE4=Mistress Of Deception
TTITLE5=Tunnel Of Pain
TTITLE6=Why It Hurts
TTITLE7=Last Entertainment
EXTD=Pete Hinton and Coroner
EXTT0=
EXTT1=
EXTT2=
EXTT3=
EXTT4=
EXTT5=
EXTT6=
EXTT7=
PLAYORDER=
